<?xml version="1.0" standalone="no"?>
<!DOCTYPE svg PUBLIC "-//W3C//DTD SVG 20010904//EN"
 "http://www.w3.org/TR/2001/REC-SVG-20010904/DTD/svg10.dtd">
<svg version="1.0" xmlns="http://www.w3.org/2000/svg"
 width="250.000000pt" height="250.000000pt" viewBox="0 0 250.000000 250.000000"
 preserveAspectRatio="xMidYMid meet">

<g transform="translate(0.000000,250.000000) scale(0.100000,-0.100000)"
fill="#000000" stroke="none">
<path d="M1172 1974 c-76 -20 -109 -40 -177 -104 -70 -67 -111 -90 -158 -90
-43 0 -47 -11 -47 -150 0 -73 6 -129 21 -185 11 -44 23 -89 25 -101 4 -16 0
-23 -15 -27 -26 -6 -27 -30 -5 -135 18 -85 38 -132 58 -132 7 0 18 -22 25 -52
6 -29 27 -85 46 -124 36 -75 39 -93 28 -183 -5 -47 -10 -55 -35 -65 -23 -8
-28 -16 -28 -42 0 -45 -34 -120 -62 -137 -13 -8 -138 -68 -278 -133 -140 -65
-286 -135 -324 -154 -77 -38 -116 -83 -116 -131 l0 -29 1130 0 c1070 0 1130 1
1130 18 0 9 -9 36 -19 58 -17 38 -29 47 -147 106 -71 36 -229 111 -351 168
l-222 103 -20 48 c-12 26 -21 62 -21 79 0 26 -5 33 -30 41 -16 6 -30 16 -30
22 -1 7 -5 45 -9 85 -8 69 -7 75 19 125 16 29 38 83 50 120 12 38 33 79 45 91
33 33 49 96 50 196 1 47 10 118 20 158 21 89 17 207 -11 269 -22 48 -97 145
-166 215 -36 36 -61 51 -113 67 -79 25 -184 27 -263 5z"/>
</g>
</svg>
